{
  "accessors": [
    {
      "bufferView": 2,
      "componentType": 5126,
      "count": 65532,
      "max": [
        0.24089433252811432,
        0.25959911942481995,
        1.4076685905456543
      ],
      "min": [
        -0.3504544496536255,
        -0.3804406225681305,
        0.10084843635559082
      ],
      "type": "VEC3"
    },
    {
      "bufferView": 2,
      "byteOffset": 786384,
      "componentType": 5126,
      "count": 65532,
      "max": [
        0.9999964833259583,
        0.9999887347221375,
        1.0
      ],
      "min": [
        -0.9999999403953552,
        -0.9999937415122986,
        -1.0
      ],
      "type": "VEC3"
    },
    {
      "bufferView": 1,
      "componentType": 5126,
      "count": 65532,
      "max": [
        0.9978840947151184,
        0.9304558038711548
      ],
      "min": [
        0.0020771250128746033,
        0.2015933394432068
      ],
      "type": "VEC2"
    },
    {
      "bufferView": 0,
      "componentType": 5125,
      "count": 160893,
      "type": "SCALAR"
    },
    {
      "bufferView": 2,
      "byteOffset": 1572768,
      "componentType": 5126,
      "count": 65532,
      "max": [
        0.2274477481842041,
        0.24558445811271667,
        1.4087988138198853
      ],
      "min": [
        -0.35086703300476074,
        -0.3806392550468445,
        0.10080969333648682
      ],
      "type": "VEC3"
    },
    {
      "bufferView": 2,
      "byteOffset": 2359152,
      "componentType": 5126,
      "count": 65532,
      "max": [
        0.999999463558197,
        0.999998927116394,
        1.0
      ],
      "min": [
        -0.9999995827674866,
        -0.9999995231628418,
        -1.0
      ],
      "type": "VEC3"
    },
    {
      "bufferView": 1,
      "byteOffset": 524256,
      "componentType": 5126,
      "count": 65532,
      "max": [
        0.9977428913116455,
        0.997791588306427
      ],
      "min": [
        0.060522597283124924,
        0.5959835648536682
      ],
      "type": "VEC2"
    },
    {
      "bufferView": 0,
      "byteOffset": 643572,
      "componentType": 5125,
      "count": 279084,
      "type": "SCALAR"
    },
    {
      "bufferView": 2,
      "byteOffset": 3145536,
      "componentType": 5126,
      "count": 65532,
      "max": [
        0.23311176896095276,
        0.2599172592163086,
        1.4044904708862305
      ],
      "min": [
        -0.346601665019989,
        -0.3836948573589325,
        0.10086511820554733
      ],
      "type": "VEC3"
    },
    {
      "bufferView": 2,
      "byteOffset": 3931920,
      "componentType": 5126,
      "count": 65532,
      "max": [
        0.9999997019767761,
        0.999999463558197,
        1.0
      ],
      "min": [
        -0.9999998211860657,
        -0.9999998807907104,
        -1.0
      ],
      "type": "VEC3"
    },
    {
      "bufferView": 1,
      "byteOffset": 1048512,
      "componentType": 5126,
      "count": 65532,
      "max": [
        0.9971364736557007,
        0.9296631217002869
      ],
      "min": [
        0.029719844460487366,
        0.5968703031539917
      ],
      "type": "VEC2"
    },
    {
      "bufferView": 0,
      "byteOffset": 1759908,
      "componentType": 5125,
      "count": 340320,
      "type": "SCALAR"
    },
    {
      "bufferView": 2,
      "byteOffset": 4718304,
      "componentType": 5126,
      "count": 65532,
      "max": [
        0.2178514003753662,
        0.25918397307395935,
        1.3649998903274536
      ],
      "min": [
        -0.34934210777282715,
        -0.36645984649658203,
        0.1012110710144043
      ],
      "type": "VEC3"
    },
    {
      "bufferView": 2,
      "byteOffset": 5504688,
      "componentType": 5126,
      "count": 65532,
      "max": [
        1.0,
        0.9999997615814209,
        0.9999838471412659
      ],
      "min": [
        -0.9999997615814209,
        -0.9999994039535522,
        -0.9998126029968262
      ],
      "type": "VEC3"
    },
    {
      "bufferView": 1,
      "byteOffset": 1572768,
      "componentType": 5126,
      "count": 65532,
      "max": [
        0.9010634422302246,
        0.9978746175765991
      ],
      "min": [
        0.0021646381355822086,
        0.823075532913208
      ],
      "type": "VEC2"
    },
    {
      "bufferView": 0,
      "byteOffset": 3121188,
      "componentType": 5125,
      "count": 364335,
      "type": "SCALAR"
    },
    {
      "bufferView": 2,
      "byteOffset": 6291072,
      "componentType": 5126,
      "count": 65532,
      "max": [
        0.23311176896095276,
        0.25120097398757935,
        1.4116482734680176
      ],
      "min": [
        -0.3502398133277893,
        -0.3835079073905945,
        0.10091506689786911
      ],
      "type": "VEC3"
    },
    {
      "bufferView": 2,
      "byteOffset": 7077456,
      "componentType": 5126,
      "count": 65532,
      "max": [
        0.9999997615814209,
        0.9999999403953552,
        0.9999997615814209
      ],
      "min": [
        -0.9999999403953552,
        -0.9999998807907104,
        -1.0
      ],
      "type": "VEC3"
    },
    {
      "bufferView": 1,
      "byteOffset": 2097024,
      "componentType": 5126,
      "count": 65532,
      "max": [
        0.9915187954902649,
        0.9978980422019958
      ],
      "min": [
        0.002124270424246788,
        0.6191879510879517
      ],
      "type": "VEC2"
    },
    {
      "bufferView": 0,
      "byteOffset": 4578528,
      "componentType": 5125,
      "count": 355695,
      "type": "SCALAR"
    },
    {
      "bufferView": 2,
      "byteOffset": 7863840,
      "componentType": 5126,
      "count": 7929,
      "max": [
        0.23018541932106018,
        0.06805616617202759,
        1.3849999904632568
      ],
      "min": [
        -0.33267056941986084,
        -0.37964877486228943,
        0.14999985694885254
      ],
      "type": "VEC3"
    },
    {
      "bufferView": 2,
      "byteOffset": 7958988,
      "componentType": 5126,
      "count": 7929,
      "max": [
        0.999972403049469,
        0.9228317141532898,
        0.9999770522117615
      ],
      "min": [
        -0.9999865293502808,
        -0.9999991655349731,
        -1.0
      ],
      "type": "VEC3"
    },
    {
      "bufferView": 1,
      "byteOffset": 2621280,
      "componentType": 5126,
      "count": 7929,
      "max": [
        0.9957224726676941,
        0.8906323909759521
      ],
      "min": [
        0.056190017610788345,
        0.614884078502655
      ],
      "type": "VEC2"
    },
    {
      "bufferView": 0,
      "byteOffset": 6001308,
      "componentType": 5125,
      "count": 41664,
      "type": "SCALAR"
    }
  ],
  "asset": {
    "extras": {
      "author": "Mikko Haapoja (https://sketchfab.com/mikkoh)",
      "license": "CC-BY-4.0 (http://creativecommons.org/licenses/by/4.0/)",
      "source": "https://sketchfab.com/3d-models/canadian-mail-box-9c4ff38d235a4e0d966657dae3061f0b",
      "title": "Canadian Mail Box"
    },
    "generator": "Sketchfab-12.68.0",
    "version": "2.0"
  },
  "bufferViews": [
    {
      "buffer": 0,
      "byteLength": 6167964,
      "name": "floatBufferViews",
      "target": 34963
    },
    {
      "buffer": 0,
      "byteLength": 2684712,
      "byteOffset": 6167964,
      "byteStride": 8,
      "name": "floatBufferViews",
      "target": 34962
    },
    {
      "buffer": 0,
      "byteLength": 8054136,
      "byteOffset": 8852676,
      "byteStride": 12,
      "name": "floatBufferViews",
      "target": 34962
    }
  ],
  "buffers": [
    {
      "byteLength": 16906812,
      "uri": "scene.bin"
    }
  ],
  "images": [
    {
      "uri": "textures/main_baseColor.jpeg"
    }
  ],
  "materials": [
    {
      "doubleSided": true,
      "name": "main",
      "pbrMetallicRoughness": {
        "baseColorTexture": {
          "index": 0
        },
        "metallicFactor": 0.8590144647319556
      }
    }
  ],
  "meshes": [
    {
      "name": "Object_0",
      "primitives": [
        {
          "attributes": {
            "NORMAL": 1,
            "POSITION": 0,
            "TEXCOORD_0": 2
          },
          "indices": 3,
          "material": 0,
          "mode": 4
        }
      ]
    },
    {
      "name": "Object_1",
      "primitives": [
        {
          "attributes": {
            "NORMAL": 5,
            "POSITION": 4,
            "TEXCOORD_0": 6
          },
          "indices": 7,
          "material": 0,
          "mode": 4
        }
      ]
    },
    {
      "name": "Object_2",
      "primitives": [
        {
          "attributes": {
            "NORMAL": 9,
            "POSITION": 8,
            "TEXCOORD_0": 10
          },
          "indices": 11,
          "material": 0,
          "mode": 4
        }
      ]
    },
    {
      "name": "Object_3",
      "primitives": [
        {
          "attributes": {
            "NORMAL": 13,
            "POSITION": 12,
            "TEXCOORD_0": 14
          },
          "indices": 15,
          "material": 0,
          "mode": 4
        }
      ]
    },
    {
      "name": "Object_4",
      "primitives": [
        {
          "attributes": {
            "NORMAL": 17,
            "POSITION": 16,
            "TEXCOORD_0": 18
          },
          "indices": 19,
          "material": 0,
          "mode": 4
        }
      ]
    },
    {
      "name": "Object_5",
      "primitives": [
        {
          "attributes": {
            "NORMAL": 21,
            "POSITION": 20,
            "TEXCOORD_0": 22
          },
          "indices": 23,
          "material": 0,
          "mode": 4
        }
      ]
    }
  ],
  "nodes": [
    {
      "children": [
        1
      ],
      "matrix": [
        1.0,
        0.0,
        0.0,
        0.0,
        0.0,
        2.220446049250313e-16,
        -1.0,
        0.0,
        0.0,
        1.0,
        2.220446049250313e-16,
        0.0,
        0.0,
        0.0,
        0.0,
        1.0
      ],
      "name": "Sketchfab_model"
    },
    {
      "children": [
        2,
        3,
        4,
        5,
        6,
        7
      ],
      "name": "scaniverse-20210316-194834.obj.cleaner.materialmerger.gles"
    },
    {
      "mesh": 0,
      "name": "Object_2"
    },
    {
      "mesh": 1,
      "name": "Object_3"
    },
    {
      "mesh": 2,
      "name": "Object_4"
    },
    {
      "mesh": 3,
      "name": "Object_5"
    },
    {
      "mesh": 4,
      "name": "Object_6"
    },
    {
      "mesh": 5,
      "name": "Object_7"
    }
  ],
  "samplers": [
    {
      "magFilter": 9729,
      "minFilter": 9987,
      "wrapS": 10497,
      "wrapT": 10497
    }
  ],
  "scene": 0,
  "scenes": [
    {
      "name": "Sketchfab_Scene",
      "nodes": [
        0
      ]
    }
  ],
  "textures": [
    {
      "sampler": 0,
      "source": 0
    }
  ]
}
