{
  "accessors": [
    {
      "bufferView": 1,
      "componentType": 5126,
      "count": 25524,
      "max": [
        33.577781677246094,
        28.211441040039063,
        24.06888198852539
      ],
      "min": [
        -33.55684280395508,
        -28.20749855041504,
        -24.075374603271484
      ],
      "type": "VEC3"
    },
    {
      "bufferView": 1,
      "byteOffset": 306288,
      "componentType": 5126,
      "count": 25524,
      "max": [
        0.9999812841415405,
        0.9999971389770508,
        0.9999147057533264
      ],
      "min": [
        -0.999950110912323,
        -0.9999550580978394,
        -1.0
      ],
      "type": "VEC3"
    },
    {
      "bufferView": 2,
      "componentType": 5126,
      "count": 25524,
      "max": [
        0.8784313797950745,
        0.7607843279838562,
        0.545098066329956,
        1.0
      ],
      "min": [
        0.8784313797950745,
        0.7607843279838562,
        0.545098066329956,
        1.0
      ],
      "type": "VEC4"
    },
    {
      "bufferView": 0,
      "componentType": 5125,
      "count": 152376,
      "type": "SCALAR"
    }
  ],
  "asset": {
    "extras": {
      "author": "ilovegm.rgm79 (https://sketchfab.com/ilovegm.rgm79)",
      "license": "CC-BY-4.0 (http://creativecommons.org/licenses/by/4.0/)",
      "source": "https://sketchfab.com/3d-models/action-explosion-effect-part-2-9c35aa0c06994e879672a561cda85e4c",
      "title": "Action Explosion Effect part 2"
    },
    "generator": "Sketchfab-12.65.0",
    "version": "2.0"
  },
  "bufferViews": [
    {
      "buffer": 0,
      "byteLength": 609504,
      "name": "floatBufferViews",
      "target": 34963
    },
    {
      "buffer": 0,
      "byteLength": 612576,
      "byteOffset": 609504,
      "byteStride": 12,
      "name": "floatBufferViews",
      "target": 34962
    },
    {
      "buffer": 0,
      "byteLength": 408384,
      "byteOffset": 1222080,
      "byteStride": 16,
      "name": "floatBufferViews",
      "target": 34962
    }
  ],
  "buffers": [
    {
      "byteLength": 1630464,
      "uri": "scene.bin"
    }
  ],
  "extensionsUsed": [
    "KHR_materials_unlit"
  ],
  "materials": [
    {
      "extensions": {
        "KHR_materials_unlit": {}
      },
      "name": "Scene_-_Root",
      "pbrMetallicRoughness": {
        "metallicFactor": 0.0
      }
    }
  ],
  "meshes": [
    {
      "name": "Object_0",
      "primitives": [
        {
          "attributes": {
            "COLOR_0": 2,
            "NORMAL": 1,
            "POSITION": 0
          },
          "indices": 3,
          "material": 0,
          "mode": 4
        }
      ]
    }
  ],
  "nodes": [
    {
      "children": [
        1
      ],
      "matrix": [
        1.0,
        0.0,
        0.0,
        0.0,
        0.0,
        2.220446049250313e-16,
        -1.0,
        0.0,
        0.0,
        1.0,
        2.220446049250313e-16,
        0.0,
        0.0,
        0.0,
        0.0,
        1.0
      ],
      "name": "Sketchfab_model"
    },
    {
      "children": [
        2
      ],
      "name": "Geode"
    },
    {
      "mesh": 0,
      "name": "Object_2"
    }
  ],
  "scene": 0,
  "scenes": [
    {
      "name": "Sketchfab_Scene",
      "nodes": [
        0
      ]
    }
  ]
}
